HIERARCHY
ROOT RootJoint
{
    OFFSET   0.000000   0.000000   0.000000
    CHANNELS 6 Xposition Yposition Zposition Xrotation Yrotation Zrotation
    JOINT pelvis_lowerback
    {
        OFFSET   0.000000   0.093605   0.000000
        CHANNELS 3 Xrotation Yrotation Zrotation
        JOINT lowerback_torso
        {
            OFFSET   0.000000   0.100000   0.000000
            CHANNELS 3 Xrotation Yrotation Zrotation
            JOINT torso_head
            {
                OFFSET   0.000000   0.282350   0.000000
                CHANNELS 3 Xrotation Yrotation Zrotation
                End Site
                {
                    OFFSET   0.000000   0.192650   0.000000
                }
            }
            JOINT rTorso_Clavicle
            {
                OFFSET  -0.001000   0.157500   0.000000
                CHANNELS 3 Xrotation Yrotation Zrotation
                JOINT rShoulder
                {
                    OFFSET  -0.117647   0.000000   0.000000
                    CHANNELS 3 Xrotation Yrotation Zrotation
                    JOINT rElbow
                    {
                        OFFSET  -0.245000   0.000000   0.000000
                        CHANNELS 3 Xrotation Yrotation Zrotation
                        JOINT rWrist
                        {
                            OFFSET  -0.240000   0.000000   0.000000
                            CHANNELS 3 Xrotation Yrotation Zrotation
                            End Site
                            {
                                OFFSET  -0.116353  -0.002500   0.000000
                            }
                        }
                    }
                }
            }
            JOINT lTorso_Clavicle
            {
                OFFSET   0.001000   0.157500   0.000000
                CHANNELS 3 Xrotation Yrotation Zrotation
                JOINT lShoulder
                {
                    OFFSET   0.117647   0.000000   0.000000
                    CHANNELS 3 Xrotation Yrotation Zrotation
                    JOINT lElbow
                    {
                        OFFSET   0.245000   0.000000   0.000000
                        CHANNELS 3 Xrotation Yrotation Zrotation
                        JOINT lWrist
                        {
                            OFFSET   0.240000   0.000000   0.000000
                            CHANNELS 3 Xrotation Yrotation Zrotation
                            End Site
                            {
                                OFFSET   0.116353  -0.002500   0.000000
                            }
                        }
                    }
                }
            }
        }
    }
    JOINT rHip
    {
        OFFSET  -0.100000  -0.051395   0.000000
        CHANNELS 3 Xrotation Yrotation Zrotation
        JOINT rKnee
        {
            OFFSET   0.000000  -0.410000   0.000000
            CHANNELS 3 Xrotation Yrotation Zrotation
            JOINT rAnkle
            {
                OFFSET   0.000000  -0.390000   0.000000
                CHANNELS 3 Xrotation Yrotation Zrotation
                JOINT rToeJoint
                {
                    OFFSET   0.000000  -0.050000   0.130000
                    CHANNELS 3 Xrotation Yrotation Zrotation
                    End Site
                    {
                        OFFSET  -0.010000   0.002000   0.060000
                    }
                }
            }
        }
    }
    JOINT lHip
    {
        OFFSET   0.100000  -0.051395   0.000000
        CHANNELS 3 Xrotation Yrotation Zrotation
        JOINT lKnee
        {
            OFFSET   0.000000  -0.410000   0.000000
            CHANNELS 3 Xrotation Yrotation Zrotation
            JOINT lAnkle
            {
                OFFSET   0.000000  -0.390000   0.000000
                CHANNELS 3 Xrotation Yrotation Zrotation
                JOINT lToeJoint
                {
                    OFFSET   0.000000  -0.050000   0.130000
                    CHANNELS 3 Xrotation Yrotation Zrotation
                    End Site
                    {
                        OFFSET   0.010000   0.002000   0.060000
                    }
                }
            }
        }
    }
}
MOTION
Frames: 10
Frame Time:   0.008333
 -3.736456   0.911067   4.344848 -14.197113 -74.075071 -13.958962   4.548864   4.384140  -1.683932   1.588508   2.331241   0.842256   1.232708   4.066157   3.449149   4.833188  -4.588355   8.163830   6.710299   9.929959  56.932484  -0.000170  33.077600   0.001026   2.164683   4.092904 -14.801451   4.546521   7.364790  -8.333214   6.969051  -2.335231 -56.603888   0.000260 -34.690189  -0.000477   1.277863  -4.039130  17.227113   2.288473  -1.264223   2.141184  39.212971   0.013973   0.000016  -2.328186   0.270536   6.575676 -30.008568   0.000302   0.001538  -9.951344  -1.698178  -3.585314  12.862343  -0.000244   0.000118  -2.077662  11.615273   7.951941  -0.685439  -0.000138  -0.000066
 -3.740982   0.911206   4.347108 -13.929058 -73.722904 -13.697818   4.549192   4.320454  -1.799780   1.546089   2.373925   0.814797   1.245210   4.107152   3.410288   4.853153  -4.608333   8.238221   6.735298   9.909359  56.840313  -0.000222  33.186169   0.000541   2.256004   4.038259 -14.778443   4.577561   7.334536  -8.388634   7.091723  -2.478869 -56.478051   0.000611 -35.027158  -0.000558   1.338725  -3.991602  17.337480   1.464008  -1.558526   1.954906  41.330396   0.014761  -0.001206  -1.622787   0.377753   7.114907 -27.527653  -0.004729  -0.005561  -9.712408  -1.791853  -3.708827  12.987706  -0.000058   0.000371  -2.043449  11.333756   8.197253  -0.529733  -0.000389  -0.000162
 -3.745457   0.911312   4.349361 -13.751791 -73.377315 -13.539827   4.562218   4.253622  -1.892068   1.515026   2.410586   0.800689   1.261217   4.143810   3.374437   4.857493  -4.622368   8.308075   6.746119   9.893608  56.746976  -0.000259  33.294084   0.000178   2.351908   4.029058 -14.789700   4.604050   7.301573  -8.450684   7.204019  -2.618977 -56.368381   0.000882 -35.349369  -0.000584   1.416474  -4.001546  17.420067   0.675824  -1.841971   1.749593  43.384587   0.015498  -0.002673  -0.943410   0.472992   7.617356 -25.054388  -0.007855  -0.011314  -9.467253  -1.892692  -3.812908  13.138513   0.000114   0.000608  -2.000876  11.063312   8.434896  -0.389217  -0.000560  -0.000240
 -3.749922   0.911407   4.351591 -13.602610 -73.033103 -13.421442   4.570798   4.186063  -1.969205   1.485573   2.441334   0.796051   1.278043   4.177584   3.343218   4.858193  -4.633972   8.376217   6.752922   9.880750  56.660775  -0.000274  33.396410  -0.000088   2.447481   4.035467 -14.808128   4.626698   7.268048  -8.512308   7.307231  -2.752168 -56.268595   0.001050 -35.651423  -0.000623   1.496317  -4.026734  17.487383  -0.066534  -2.101777   1.535244  45.312231   0.016140  -0.003851  -0.309127   0.566198   8.085260 -22.784415  -0.009483  -0.014820  -9.220620  -1.990384  -3.896680  13.299688   0.000257   0.000823  -1.956028  10.809631   8.659371  -0.259726  -0.000666  -0.000273
 -3.754386   0.911496   4.353789 -13.458305 -72.687570 -13.318064   4.571987   4.118938  -2.035217   1.453686   2.466670   0.798017   1.293640   4.208837   3.315261   4.858728  -4.644734   8.443585   6.758706   9.869570  56.582827  -0.000274  33.492362  -0.000282   2.540238   4.046716 -14.824355   4.645896   7.234832  -8.570634   7.402100  -2.877920 -56.175937   0.001129 -35.934128  -0.000688   1.574877  -4.056839  17.547339  -0.765487  -2.338618   1.316334  47.110278   0.016655  -0.004688   0.281996   0.657014   8.521064 -20.705133  -0.010025  -0.016659  -8.974677  -2.083487  -3.961589  13.464848   0.000369   0.001016  -1.911344  10.572170   8.870976  -0.140597  -0.000725  -0.000268
 -3.758850   0.911580   4.355951 -13.309288 -72.338643 -13.218793   4.565675   4.052739  -2.092586   1.418572   2.487100   0.804697   1.307482   4.237798   3.289770   4.860073  -4.655205   8.510021   6.764413   9.859516  56.512672  -0.000262  33.581965  -0.000421   2.629396   4.059058 -14.836206   4.661881   7.202239  -8.624581   7.489176  -2.996360 -56.089005   0.001140 -36.198681  -0.000774   1.651493  -4.089596  17.603734  -1.423551  -2.554363   1.096094  48.785440   0.017034  -0.005204   0.832770   0.745090   8.927017 -18.800719  -0.009794  -0.017323  -8.730369  -2.171991  -4.009122  13.630999   0.000454   0.001188  -1.867884  10.349941   9.070441  -0.031182  -0.000747  -0.000236
 -3.763118   0.911919   4.358072 -13.041125 -71.979058 -12.965988   4.554224   3.981725  -2.175393   1.371349   2.498340   0.798498   1.317713   4.264316   3.265026   4.857410  -4.660535   8.589750   6.765976   9.852432  56.451329  -0.000224  33.664223  -0.000531   2.713158   4.065374 -14.846519   4.666956   7.162366  -8.685881   7.562509  -3.111421 -56.006088   0.001133 -36.444996  -0.000859   1.724384  -4.119024  17.656096  -2.086942  -2.745248   0.832436  50.332946   0.017397  -0.005244   1.346158   0.829836   9.305129 -17.053819  -0.008950  -0.016886  -8.464916  -2.292361  -4.096764  13.723338   0.000450   0.001147  -2.262771  10.098528   9.251917   0.060149  -0.000658  -0.000186
 -3.767193   0.912213   4.360156 -12.639428 -71.391407 -12.654295   4.585187   3.857612  -2.155062   1.313905   2.460944   0.829884   1.320356   4.317521   3.223376   4.863509  -4.776105   8.656873   6.712167   9.729788  56.341637  -0.000372  33.875367  -0.000722   2.743843   4.025540 -14.797576   4.658271   7.061690  -8.815656   7.575357  -3.243293 -55.882061   0.001012 -36.841332  -0.001411   1.729483  -4.058047  17.675165  -2.623485  -2.888529   0.655487  51.529212   0.018882  -0.003045   1.319817   0.573241   9.405211 -15.497977  -0.001760  -0.014787  -8.279298  -2.397574  -4.120918  13.942804   0.000621   0.001861  -2.682773   9.596450   9.479130   0.143931  -0.000605  -0.000146
 -3.771111   0.912471   4.362231 -12.211123 -70.749645 -12.321387   4.623202   3.742395  -2.117150   1.257417   2.412818   0.871679   1.326656   4.371261   3.189681   4.867848  -4.893005   8.700196   6.661897   9.608156  56.221836  -0.000448  34.074608  -0.000976   2.772903   4.003764 -14.799932   4.619918   6.946887  -8.939355   7.560878  -3.384822 -55.769233   0.000737 -37.227222  -0.002074   1.755922  -4.076084  17.694622  -3.139613  -2.987123   0.451416  52.594965   0.020439  -0.001122   1.287126   0.328703   9.496044 -14.112174   0.004475  -0.012201  -8.115012  -2.535887  -4.142724  14.164073   0.000765   0.002481  -3.077546   9.072544   9.685825   0.212351  -0.000538  -0.000114
 -3.774917   0.912712   4.364277 -11.796001 -70.091479 -12.004350   4.663675   3.636818  -2.070673   1.202868   2.365014   0.918241   1.334251   4.422705   3.161072   4.868809  -5.000739   8.731342   6.613273   9.493675  56.101758  -0.000463  34.260400  -0.001232   2.801517   3.983803 -14.821265   4.569160   6.829484  -9.053660   7.534755  -3.525355 -55.663541   0.000395 -37.593805  -0.002706   1.793597  -4.134520  17.718153  -3.640910  -3.057771   0.219568  53.571569   0.021701   0.000253   1.256140   0.099625   9.579791 -12.843809   0.009595  -0.009949  -7.956652  -2.693599  -4.158073  14.376117   0.000864   0.002929  -3.450644   8.551225   9.873938   0.268892  -0.000471  -0.000090
